<?xml version="1.0" encoding="UTF-8"?>
<svg version="1.1" xmlns="http://www.w3.org/2000/svg" width="816" height="160">
<path d="M0 0 C1.25952484 -0.00021904 1.25952484 -0.00021904 2.54449463 -0.0004425 C5.3039412 0.00025094 8.06331921 0.00801665 10.82275391 0.01586914 C12.74231937 0.01773534 14.66188531 0.01915829 16.58145142 0.02015686 C21.62186001 0.02396614 26.66223956 0.03378282 31.70263672 0.04486084 C36.8507447 0.05510916 41.9988574 0.0596618 47.14697266 0.06469727 C57.2394333 0.07540655 67.33187243 0.09246385 77.42431641 0.11352539 C75.9173016 3.93806056 74.25421979 7.61834482 72.42431641 11.30102539 C71.90869141 12.34645508 71.39306641 13.39188477 70.86181641 14.46899414 C69.42431641 17.11352539 69.42431641 17.11352539 67.42431641 19.11352539 C64.75894165 19.37854004 64.75894165 19.37854004 61.32910156 19.40063477 C60.0466153 19.41404907 58.76412903 19.42746338 57.44277954 19.44128418 C56.75437611 19.4438472 56.06597267 19.44641022 55.35670853 19.4490509 C53.19395572 19.45734992 51.03162325 19.47787202 48.86898804 19.50158691 C44.26249371 19.54987483 39.655956 19.582672 35.04931641 19.61352539 C29.74240774 19.6493678 24.4356984 19.69177354 19.12897873 19.74946594 C17.01772967 19.76926568 14.90664029 19.77780468 12.7953186 19.7857666 C-1.74819315 19.4902717 -1.74819315 19.4902717 -14.57568359 25.11352539 C-15.23568359 25.11352539 -15.89568359 25.11352539 -16.57568359 25.11352539 C-16.57568359 25.77352539 -16.57568359 26.43352539 -16.57568359 27.11352539 C-17.31818359 27.83540039 -18.06068359 28.55727539 -18.82568359 29.30102539 C-25.06647598 35.68365397 -26.12699261 40.44725314 -26.05908203 49.18774414 C-25.83894335 54.86360905 -24.62504702 58.40087282 -21.57568359 63.11352539 C-21.24568359 64.10352539 -20.91568359 65.09352539 -20.57568359 66.11352539 C-19.26165084 66.81747151 -17.92365789 67.47698197 -16.57568359 68.11352539 C-15.79193359 68.77352539 -15.00818359 69.43352539 -14.20068359 70.11352539 C-6.69701751 75.83060431 3.37860083 75.2781189 12.38916016 75.42993164 C13.93912437 75.46110329 13.93912437 75.46110329 15.520401 75.49290466 C18.80080924 75.55796017 22.08129326 75.61707943 25.36181641 75.67602539 C27.59424592 75.7192525 29.82666795 75.7628681 32.05908203 75.80688477 C37.51408152 75.9135961 42.96915533 76.01544183 48.42431641 76.11352539 C48.08200485 75.52180038 47.7396933 74.93007538 47.38700867 74.32041931 C45.08776705 70.27898384 43.24214305 66.54661609 41.81884766 62.11743164 C40.67791179 59.73879016 40.67791179 59.73879016 38.42431641 58.11352539 C32.21212457 56.42409257 25.48669585 56.94784215 19.11181641 57.05102539 C17.30386213 57.04794981 15.49590991 57.04083337 13.68798828 57.02954102 C9.26354732 57.00314463 4.85136111 57.06039235 0.42431641 57.11352539 C0.42431641 50.84352539 0.42431641 44.57352539 0.42431641 38.11352539 C7.29253852 37.86597386 14.15815738 37.68471312 21.02978516 37.56420898 C23.36585725 37.51397436 25.70161574 37.44576995 28.03662109 37.35913086 C31.39840922 37.23753427 34.75604041 37.18106657 38.11962891 37.13696289 C39.16047638 37.08535004 40.20132385 37.03373718 41.27371216 36.9805603 C44.29906308 36.97822993 46.57562466 37.08357978 49.42431641 38.11352539 C52.17674352 41.13806923 53.78943542 44.39164348 55.42431641 48.11352539 C56.08996804 49.40383653 56.75999153 50.69190978 57.43603516 51.97680664 C58.26554687 53.68416992 58.26554687 53.68416992 59.11181641 55.42602539 C61.06763841 59.44108067 63.08651242 63.30933536 65.42431641 67.11352539 C70.59071468 75.9501704 75.48623973 84.90319802 80.23681641 93.96899414 C81.6461681 96.65463374 83.08097305 99.32296779 84.54931641 101.97680664 C84.87730225 102.57227295 85.20528809 103.16773926 85.54321289 103.78125 C86.42761026 105.38140286 87.31831801 106.97806342 88.20947266 108.57446289 C89.42431641 111.11352539 89.42431641 111.11352539 89.42431641 114.11352539 C86.32032663 114.20062828 83.21665093 114.25394848 80.11181641 114.30102539 C79.23074219 114.32616211 78.34966797 114.35129883 77.44189453 114.37719727 C76.59433594 114.38686523 75.74677734 114.3965332 74.87353516 114.40649414 C74.09324951 114.42220459 73.31296387 114.43791504 72.5090332 114.45410156 C69.87451578 114.02370552 69.03067894 113.20852474 67.42431641 111.11352539 C66.73681641 108.42602539 66.73681641 108.42602539 66.42431641 106.11352539 C65.76431641 106.11352539 65.10431641 106.11352539 64.42431641 106.11352539 C63.43431641 102.64852539 63.43431641 102.64852539 62.42431641 99.11352539 C61.76431641 99.11352539 61.10431641 99.11352539 60.42431641 99.11352539 C60.09431641 98.12352539 59.76431641 97.13352539 59.42431641 96.11352539 C58.18642365 96.10805695 58.18642365 96.10805695 56.92352295 96.10247803 C49.09803757 96.06441253 41.27296113 96.00735204 33.44776535 95.92962265 C29.42593646 95.89032495 25.40432072 95.8580507 21.38232422 95.8425293 C17.49167277 95.82724463 13.60160801 95.79259463 9.71121979 95.74521637 C8.23633206 95.730523 6.76136051 95.72249139 5.28639984 95.72164154 C-10.30696103 95.70364185 -22.28485816 92.12581162 -33.76318359 81.36352539 C-43.16057099 71.53558041 -47.11563718 60.59744561 -47.01318359 47.17602539 C-47.03316406 46.25112305 -47.05314453 45.3262207 -47.07373047 44.37329102 C-47.06893502 37.53018726 -45.51845797 32.26051465 -42.57568359 26.11352539 C-42.26977295 25.47084717 -41.9638623 24.82816895 -41.64868164 24.16601562 C-40.98037025 22.80381818 -40.28236414 21.45621843 -39.57568359 20.11352539 C-38.91568359 20.11352539 -38.25568359 20.11352539 -37.57568359 20.11352539 C-37.32560547 19.54375977 -37.07552734 18.97399414 -36.81787109 18.38696289 C-32.11908397 9.7872959 -23.50755321 4.48859083 -14.57568359 1.11352539 C-9.71064558 0.08114534 -4.95138393 -0.02274697 0 0 Z " fill="#EDC719" transform="translate(239.57568359375,7.886474609375)"/>
<path d="M0 0 C12.375 -0.04125 24.75 -0.0825 37.5 -0.125 C41.39490234 -0.14320801 45.28980469 -0.16141602 49.30273438 -0.18017578 C54.09082031 -0.18920898 54.09082031 -0.18920898 56.33850098 -0.19088745 C57.89482774 -0.19394114 59.45115003 -0.20093874 61.00744629 -0.21115112 C63.37679149 -0.22590979 65.74584971 -0.22780803 68.11523438 -0.22705078 C69.14005039 -0.23784511 69.14005039 -0.23784511 70.18556976 -0.2488575 C80.01395594 -0.20714622 89.17775681 3.085621 97 9 C97 9.66 97 10.32 97 11 C97.99 11.33 98.98 11.66 100 12 C100 12.66 100 13.32 100 14 C100.99 14.33 101.98 14.66 103 15 C103 15.66 103 16.32 103 17 C104.485 17.495 104.485 17.495 106 18 C114.27959382 29.49224871 116.61916922 43.28649699 114.53125 57.1015625 C112.53215909 66.31165993 109.00472976 75.52307964 101 81 C100.4225 81.804375 99.845 82.60875 99.25 83.4375 C93.7395452 89.71329574 84.09461399 93.44564436 76 95 C73.51318489 95.08883737 71.0555648 95.1263489 68.56933594 95.11352539 C67.81552769 95.11364593 67.06171944 95.11376646 66.28506851 95.11389065 C63.85147371 95.11314585 61.41795605 95.10553737 58.984375 95.09765625 C57.4793298 95.09618549 55.97428409 95.0951656 54.46923828 95.09460449 C48.89615104 95.08936716 43.32307476 95.07540592 37.75 95.0625 C25.2925 95.041875 12.835 95.02125 0 95 C0 63.65 0 32.3 0 0 Z M20 19 C20 37.81 20 56.62 20 76 C31.3540625 76.061875 31.3540625 76.061875 42.9375 76.125 C46.49519165 76.15231201 46.49519165 76.15231201 50.12475586 76.18017578 C52.02978286 76.18602354 53.93481239 76.19111843 55.83984375 76.1953125 C56.8086145 76.20554443 57.77738525 76.21577637 58.7755127 76.22631836 C64.79323416 76.22784434 70.19213778 75.55983435 76 74 C77.33300933 73.66537332 78.66625032 73.33166352 80 73 C80 72.34 80 71.68 80 71 C80.804375 70.731875 81.60875 70.46375 82.4375 70.1875 C83.283125 69.795625 84.12875 69.40375 85 69 C85.33 68.01 85.66 67.02 86 66 C86.99 65.67 87.98 65.34 89 65 C90.4322829 62.81990889 90.4322829 62.81990889 91.625 60.1875 C92.05039063 59.31480469 92.47578125 58.44210938 92.9140625 57.54296875 C95.72271401 50.96587475 95.8748509 44.78950057 93.5 38.0625 C91.12008924 32.56055576 87.57229497 27.88692016 83 24 C82.01 24 81.02 24 80 24 C80 23.34 80 22.68 80 22 C72.02799511 19.08341284 64.41777712 18.85853875 56.03515625 18.90234375 C54.65982727 18.90385437 54.65982727 18.90385437 53.25671387 18.90539551 C49.85862971 18.91059501 46.46056349 18.92455609 43.0625 18.9375 C35.451875 18.958125 27.84125 18.97875 20 19 Z " fill="#E9DD19" transform="translate(38,8)"/>
<path d="M0 0 C31.68 0 63.36 0 96 0 C96 6.27 96 12.54 96 19 C70.92 19 45.84 19 20 19 C20 37.81 20 56.62 20 76 C45.08 76 70.16 76 96 76 C96 82.27 96 88.54 96 95 C64.32 95 32.64 95 0 95 C0 63.65 0 32.3 0 0 Z " fill="#F09B1F" transform="translate(580,8)"/>
<path d="M0 0 C4.24977046 -0.11611395 8.49913337 -0.18722349 12.75 -0.25 C13.9565625 -0.28351562 15.163125 -0.31703125 16.40625 -0.3515625 C18.14648438 -0.37089844 18.14648438 -0.37089844 19.921875 -0.390625 C20.99018555 -0.41157227 22.05849609 -0.43251953 23.15917969 -0.45410156 C26.69748729 0.11149247 27.87446271 1.16210664 30 4 C30 4.99 30 5.98 30 7 C30.66 7 31.32 7 32 7 C33.15625 8.51171875 33.15625 8.51171875 34.5 10.6875 C37.259237 14.9842223 40.24788238 19.03141539 43.375 23.0625 C43.82810547 23.64668701 44.28121094 24.23087402 44.74804688 24.83276367 C45.82975294 26.22361735 46.91454198 27.61207246 48 29 C52.60220178 24.73517767 56.12439427 19.91686403 59.75 14.8125 C60.33910156 13.99330078 60.92820312 13.17410156 61.53515625 12.33007812 C64.4925642 8.3032643 64.4925642 8.3032643 67 4 C67.66 4 68.32 4 69 4 C69 3.01 69 2.02 69 1 C71.66178221 -0.3308911 73.68739396 -0.11268993 76.6640625 -0.09765625 C77.78554688 -0.09443359 78.90703125 -0.09121094 80.0625 -0.08789062 C81.238125 -0.07951172 82.41375 -0.07113281 83.625 -0.0625 C84.80835938 -0.05798828 85.99171875 -0.05347656 87.2109375 -0.04882812 C90.14067507 -0.03701467 93.07031272 -0.02054258 96 0 C94.56098773 3.11830159 92.82112821 5.70431915 90.7265625 8.421875 C90.07196045 9.27523438 89.4173584 10.12859375 88.74291992 11.0078125 C88.04400635 11.91273437 87.34509277 12.81765625 86.625 13.75 C85.17536303 15.64030435 83.72614866 17.53093285 82.27734375 19.421875 C81.19622314 20.83049805 81.19622314 20.83049805 80.09326172 22.26757812 C77.10725015 26.16534363 74.14099162 30.07755423 71.1875 34 C70.70297363 34.63905273 70.21844727 35.27810547 69.71923828 35.93652344 C67.74895806 38.55650938 65.945892 41.09353842 64.30078125 43.9375 C63.87152344 44.618125 63.44226563 45.29875 63 46 C62.34 46 61.68 46 61 46 C61.66 46.94875 62.32 47.8975 63 48.875 C65 52 65 52 65 54 C65.66 54 66.32 54 67 54 C67 54.99 67 55.98 67 57 C68.485 57.495 68.485 57.495 70 58 C71.1875 60.5625 71.1875 60.5625 72 63 C72.66 63 73.32 63 74 63 C74 63.99 74 64.98 74 66 C75.485 66.495 75.485 66.495 77 67 C78.75390625 69.46875 78.75390625 69.46875 80.5625 72.5 C82.65415979 76.40880837 82.65415979 76.40880837 86 79 C86 79.99 86 80.98 86 82 C86.66 82 87.32 82 88 82 C89.18359375 83.64453125 89.18359375 83.64453125 90.4375 85.8125 C91.72241258 88.02383858 92.83498239 89.83731205 94.66015625 91.63671875 C96 93 96 93 96 95 C75.22199532 97.86339994 75.22199532 97.86339994 68.49023438 93.29785156 C64.2994572 89.10139583 61.12480896 84.26335842 58.22900391 79.10644531 C57.02938792 76.93528962 57.02938792 76.93528962 55.34521484 74.91699219 C54 73 54 73 54 70 C53.01 69.67 52.02 69.34 51 69 C49.3125 67.4375 49.3125 67.4375 48 66 C47.01 66.33 46.02 66.66 45 67 C45 67.99 45 68.98 45 70 C44.34 70 43.68 70 43 70 C42.5968457 71.11060791 42.5968457 71.11060791 42.18554688 72.24365234 C41.04085739 74.90500826 39.80760905 76.82951364 38.03125 79.1015625 C37.46019531 79.83890625 36.88914062 80.57625 36.30078125 81.3359375 C35.70652344 82.09132813 35.11226562 82.84671875 34.5 83.625 C33.32221278 85.13747296 32.14510146 86.65047258 30.96875 88.1640625 C30.44732422 88.82873535 29.92589844 89.4934082 29.38867188 90.17822266 C28.19775889 91.74056314 27.08969742 93.36545387 26 95 C23.38623047 95.34057617 23.38623047 95.34057617 20.1171875 95.29296875 C18.95058594 95.28330078 17.78398438 95.27363281 16.58203125 95.26367188 C14.74705078 95.2259668 14.74705078 95.2259668 12.875 95.1875 C11.64394531 95.17396484 10.41289063 95.16042969 9.14453125 95.14648438 C6.09592157 95.11103543 3.048175 95.06162079 0 95 C2.40369962 90.67434432 4.42995777 87.45487958 8 84 C8.53625 83.0925 9.0725 82.185 9.625 81.25 C10.07875 80.5075 10.5325 79.765 11 79 C11.66 79 12.32 79 13 79 C13 78.01 13 77.02 13 76 C14.33333333 74.66666667 15.66666667 73.33333333 17 72 C18.59980696 69.64110097 20.1264545 67.24766376 21.6328125 64.828125 C22.08398438 64.22484375 22.53515625 63.6215625 23 63 C23.66 63 24.32 63 25 63 C25 62.01 25 61.02 25 60 C25.66 60 26.32 60 27 60 C27.268125 59.195625 27.53625 58.39125 27.8125 57.5625 C28.204375 56.716875 28.59625 55.87125 29 55 C30.485 54.505 30.485 54.505 32 54 C32 53.01 32 52.02 32 51 C32.66 51 33.32 51 34 51 C34.82825141 49.25522265 34.82825141 49.25522265 35 47 C33.68201368 44.5720757 33.68201368 44.5720757 31.5625 42.0625 C30.7286462 41.00040841 29.89535969 39.93787132 29.0625 38.875 C28.58425781 38.27300781 28.10601563 37.67101563 27.61328125 37.05078125 C24.37300476 32.93178572 21.22979223 28.73768511 18.0625 24.5625 C14.30561742 19.62750399 10.54551101 14.69532712 6.74609375 9.79296875 C6.27486084 9.18445068 5.80362793 8.57593262 5.31811523 7.94897461 C4.08939428 6.36522407 2.85732722 4.7840711 1.625 3.203125 C0 1 0 1 0 0 Z " fill="#E98B1F" transform="translate(680,8)"/>
<path d="M0 0 C6.6 0 13.2 0 20 0 C20 25.08 20 50.16 20 76 C45.08 76 70.16 76 96 76 C96 82.27 96 88.54 96 95 C64.32 95 32.64 95 0 95 C0 63.65 0 32.3 0 0 Z " fill="#F0A81B" transform="translate(475,8)"/>
<path d="M0 0 C31.35 0 62.7 0 95 0 C95 6.27 95 12.54 95 19 C70.25 19 45.5 19 20 19 C20 44.08 20 69.16 20 95 C13.4 95 6.8 95 0 95 C0 63.65 0 32.3 0 0 Z " fill="#F0B618" transform="translate(366,8)"/>
<path d="M0 0 C6.6 0 13.2 0 20 0 C20 31.35 20 62.7 20 95 C13.4 95 6.8 95 0 95 C0 63.65 0 32.3 0 0 Z " fill="#EABA1D" transform="translate(326,8)"/>
<path d="M0 0 C6.6 0 13.2 0 20 0 C20 31.35 20 62.7 20 95 C13.4 95 6.8 95 0 95 C0 63.65 0 32.3 0 0 Z " fill="#E6CD1A" transform="translate(163,8)"/>
<path d="M0 0 C17.49 0 34.98 0 53 0 C53 6.27 53 12.54 53 19 C35.51 19 18.02 19 0 19 C0 12.73 0 6.46 0 0 Z " fill="#F09820" transform="translate(623,46)"/>
<path d="M0 0 C17.49 0 34.98 0 53 0 C53 6.27 53 12.54 53 19 C35.51 19 18.02 19 0 19 C0 12.73 0 6.46 0 0 Z " fill="#F3B317" transform="translate(408,46)"/>
</svg>
